<?xml version="1.0" encoding="utf-8" standalone="no"?>
<!DOCTYPE svg PUBLIC "-//W3C//DTD SVG 1.1//EN"
  "http://www.w3.org/Graphics/SVG/1.1/DTD/svg11.dtd">
<svg xmlns:xlink="http://www.w3.org/1999/xlink" width="864pt" height="360pt" viewBox="0 0 864 360" xmlns="http://www.w3.org/2000/svg" version="1.1">
 <metadata>
  <rdf:RDF xmlns:dc="http://purl.org/dc/elements/1.1/" xmlns:cc="http://creativecommons.org/ns#" xmlns:rdf="http://www.w3.org/1999/02/22-rdf-syntax-ns#">
   <cc:Work>
    <dc:type rdf:resource="http://purl.org/dc/dcmitype/StillImage"/>
    <dc:date>2023-10-20T15:32:07.513502</dc:date>
    <dc:format>image/svg+xml</dc:format>
    <dc:creator>
     <cc:Agent>
      <dc:title>Matplotlib v3.6.2, https://matplotlib.org/</dc:title>
     </cc:Agent>
    </dc:creator>
   </cc:Work>
  </rdf:RDF>
 </metadata>
 <defs>
  <style type="text/css">*{stroke-linejoin: round; stroke-linecap: butt}</style>
 </defs>
 <g id="figure_1">
  <g id="patch_1">
   <path d="M 0 360 
L 864 360 
L 864 0 
L 0 0 
L 0 360 
z
" style="fill: none"/>
  </g>
  <g id="axes_1">
   <g id="patch_2">
    <path d="M 108 320.4 
L 777.6 320.4 
L 777.6 43.2 
L 108 43.2 
L 108 320.4 
z
" style="fill: none"/>
   </g>
   <g id="matplotlib.axis_1">
    <g id="xtick_1">
     <g id="line2d_1">
      <path d="M 138.436364 320.4 
L 138.436364 43.2 
" clip-path="url(#pb11453674b)" style="fill: none; stroke: #b0b0b0; stroke-width: 0.8; stroke-linecap: square"/>
     </g>
     <g id="line2d_2">
      <defs>
       <path id="m394c0af177" d="M 0 0 
L 0 3.5 
" style="stroke: #000000; stroke-width: 0.8"/>
      </defs>
      <g>
       <use xlink:href="#m394c0af177" x="138.436364" y="320.4" style="stroke: #000000; stroke-width: 0.8"/>
      </g>
     </g>
     <g id="text_1">
      <!-- 0 -->
      <g transform="translate(135.255114 334.998438) scale(0.1 -0.1)">
       <defs>
        <path id="DejaVuSans-30" d="M 2034 4250 
Q 1547 4250 1301 3770 
Q 1056 3291 1056 2328 
Q 1056 1369 1301 889 
Q 1547 409 2034 409 
Q 2525 409 2770 889 
Q 3016 1369 3016 2328 
Q 3016 3291 2770 3770 
Q 2525 4250 2034 4250 
z
M 2034 4750 
Q 2819 4750 3233 4129 
Q 3647 3509 3647 2328 
Q 3647 1150 3233 529 
Q 2819 -91 2034 -91 
Q 1250 -91 836 529 
Q 422 1150 422 2328 
Q 422 3509 836 4129 
Q 1250 4750 2034 4750 
z
" transform="scale(0.015625)"/>
       </defs>
       <use xlink:href="#DejaVuSans-30"/>
      </g>
     </g>
    </g>
    <g id="xtick_2">
     <g id="line2d_3">
      <path d="M 264.076668 320.4 
L 264.076668 43.2 
" clip-path="url(#pb11453674b)" style="fill: none; stroke: #b0b0b0; stroke-width: 0.8; stroke-linecap: square"/>
     </g>
     <g id="line2d_4">
      <g>
       <use xlink:href="#m394c0af177" x="264.076668" y="320.4" style="stroke: #000000; stroke-width: 0.8"/>
      </g>
     </g>
     <g id="text_2">
      <!-- 200 -->
      <g transform="translate(254.532918 334.998438) scale(0.1 -0.1)">
       <defs>
        <path id="DejaVuSans-32" d="M 1228 531 
L 3431 531 
L 3431 0 
L 469 0 
L 469 531 
Q 828 903 1448 1529 
Q 2069 2156 2228 2338 
Q 2531 2678 2651 2914 
Q 2772 3150 2772 3378 
Q 2772 3750 2511 3984 
Q 2250 4219 1831 4219 
Q 1534 4219 1204 4116 
Q 875 4013 500 3803 
L 500 4441 
Q 881 4594 1212 4672 
Q 1544 4750 1819 4750 
Q 2544 4750 2975 4387 
Q 3406 4025 3406 3419 
Q 3406 3131 3298 2873 
Q 3191 2616 2906 2266 
Q 2828 2175 2409 1742 
Q 1991 1309 1228 531 
z
" transform="scale(0.015625)"/>
       </defs>
       <use xlink:href="#DejaVuSans-32"/>
       <use xlink:href="#DejaVuSans-30" x="63.623047"/>
       <use xlink:href="#DejaVuSans-30" x="127.246094"/>
      </g>
     </g>
    </g>
    <g id="xtick_3">
     <g id="line2d_5">
      <path d="M 389.716972 320.4 
L 389.716972 43.2 
" clip-path="url(#pb11453674b)" style="fill: none; stroke: #b0b0b0; stroke-width: 0.8; stroke-linecap: square"/>
     </g>
     <g id="line2d_6">
      <g>
       <use xlink:href="#m394c0af177" x="389.716972" y="320.4" style="stroke: #000000; stroke-width: 0.8"/>
      </g>
     </g>
     <g id="text_3">
      <!-- 400 -->
      <g transform="translate(380.173222 334.998438) scale(0.1 -0.1)">
       <defs>
        <path id="DejaVuSans-34" d="M 2419 4116 
L 825 1625 
L 2419 1625 
L 2419 4116 
z
M 2253 4666 
L 3047 4666 
L 3047 1625 
L 3713 1625 
L 3713 1100 
L 3047 1100 
L 3047 0 
L 2419 0 
L 2419 1100 
L 313 1100 
L 313 1709 
L 2253 4666 
z
" transform="scale(0.015625)"/>
       </defs>
       <use xlink:href="#DejaVuSans-34"/>
       <use xlink:href="#DejaVuSans-30" x="63.623047"/>
       <use xlink:href="#DejaVuSans-30" x="127.246094"/>
      </g>
     </g>
    </g>
    <g id="xtick_4">
     <g id="line2d_7">
      <path d="M 515.357276 320.4 
L 515.357276 43.2 
" clip-path="url(#pb11453674b)" style="fill: none; stroke: #b0b0b0; stroke-width: 0.8; stroke-linecap: square"/>
     </g>
     <g id="line2d_8">
      <g>
       <use xlink:href="#m394c0af177" x="515.357276" y="320.4" style="stroke: #000000; stroke-width: 0.8"/>
      </g>
     </g>
     <g id="text_4">
      <!-- 600 -->
      <g transform="translate(505.813526 334.998438) scale(0.1 -0.1)">
       <defs>
        <path id="DejaVuSans-36" d="M 2113 2584 
Q 1688 2584 1439 2293 
Q 1191 2003 1191 1497 
Q 1191 994 1439 701 
Q 1688 409 2113 409 
Q 2538 409 2786 701 
Q 3034 994 3034 1497 
Q 3034 2003 2786 2293 
Q 2538 2584 2113 2584 
z
M 3366 4563 
L 3366 3988 
Q 3128 4100 2886 4159 
Q 2644 4219 2406 4219 
Q 1781 4219 1451 3797 
Q 1122 3375 1075 2522 
Q 1259 2794 1537 2939 
Q 1816 3084 2150 3084 
Q 2853 3084 3261 2657 
Q 3669 2231 3669 1497 
Q 3669 778 3244 343 
Q 2819 -91 2113 -91 
Q 1303 -91 875 529 
Q 447 1150 447 2328 
Q 447 3434 972 4092 
Q 1497 4750 2381 4750 
Q 2619 4750 2861 4703 
Q 3103 4656 3366 4563 
z
" transform="scale(0.015625)"/>
       </defs>
       <use xlink:href="#DejaVuSans-36"/>
       <use xlink:href="#DejaVuSans-30" x="63.623047"/>
       <use xlink:href="#DejaVuSans-30" x="127.246094"/>
      </g>
     </g>
    </g>
    <g id="xtick_5">
     <g id="line2d_9">
      <path d="M 640.99758 320.4 
L 640.99758 43.2 
" clip-path="url(#pb11453674b)" style="fill: none; stroke: #b0b0b0; stroke-width: 0.8; stroke-linecap: square"/>
     </g>
     <g id="line2d_10">
      <g>
       <use xlink:href="#m394c0af177" x="640.99758" y="320.4" style="stroke: #000000; stroke-width: 0.8"/>
      </g>
     </g>
     <g id="text_5">
      <!-- 800 -->
      <g transform="translate(631.45383 334.998438) scale(0.1 -0.1)">
       <defs>
        <path id="DejaVuSans-38" d="M 2034 2216 
Q 1584 2216 1326 1975 
Q 1069 1734 1069 1313 
Q 1069 891 1326 650 
Q 1584 409 2034 409 
Q 2484 409 2743 651 
Q 3003 894 3003 1313 
Q 3003 1734 2745 1975 
Q 2488 2216 2034 2216 
z
M 1403 2484 
Q 997 2584 770 2862 
Q 544 3141 544 3541 
Q 544 4100 942 4425 
Q 1341 4750 2034 4750 
Q 2731 4750 3128 4425 
Q 3525 4100 3525 3541 
Q 3525 3141 3298 2862 
Q 3072 2584 2669 2484 
Q 3125 2378 3379 2068 
Q 3634 1759 3634 1313 
Q 3634 634 3220 271 
Q 2806 -91 2034 -91 
Q 1263 -91 848 271 
Q 434 634 434 1313 
Q 434 1759 690 2068 
Q 947 2378 1403 2484 
z
M 1172 3481 
Q 1172 3119 1398 2916 
Q 1625 2713 2034 2713 
Q 2441 2713 2670 2916 
Q 2900 3119 2900 3481 
Q 2900 3844 2670 4047 
Q 2441 4250 2034 4250 
Q 1625 4250 1398 4047 
Q 1172 3844 1172 3481 
z
" transform="scale(0.015625)"/>
       </defs>
       <use xlink:href="#DejaVuSans-38"/>
       <use xlink:href="#DejaVuSans-30" x="63.623047"/>
       <use xlink:href="#DejaVuSans-30" x="127.246094"/>
      </g>
     </g>
    </g>
    <g id="xtick_6">
     <g id="line2d_11">
      <path d="M 766.637883 320.4 
L 766.637883 43.2 
" clip-path="url(#pb11453674b)" style="fill: none; stroke: #b0b0b0; stroke-width: 0.8; stroke-linecap: square"/>
     </g>
     <g id="line2d_12">
      <g>
       <use xlink:href="#m394c0af177" x="766.637883" y="320.4" style="stroke: #000000; stroke-width: 0.8"/>
      </g>
     </g>
     <g id="text_6">
      <!-- 1000 -->
      <g transform="translate(753.912883 334.998438) scale(0.1 -0.1)">
       <defs>
        <path id="DejaVuSans-31" d="M 794 531 
L 1825 531 
L 1825 4091 
L 703 3866 
L 703 4441 
L 1819 4666 
L 2450 4666 
L 2450 531 
L 3481 531 
L 3481 0 
L 794 0 
L 794 531 
z
" transform="scale(0.015625)"/>
       </defs>
       <use xlink:href="#DejaVuSans-31"/>
       <use xlink:href="#DejaVuSans-30" x="63.623047"/>
       <use xlink:href="#DejaVuSans-30" x="127.246094"/>
       <use xlink:href="#DejaVuSans-30" x="190.869141"/>
      </g>
     </g>
    </g>
   </g>
   <g id="matplotlib.axis_2">
    <g id="ytick_1">
     <g id="line2d_13">
      <path d="M 108 300.51524 
L 777.6 300.51524 
" clip-path="url(#pb11453674b)" style="fill: none; stroke: #b0b0b0; stroke-width: 0.8; stroke-linecap: square"/>
     </g>
     <g id="line2d_14">
      <defs>
       <path id="mbfa85c58bf" d="M 0 0 
L -3.5 0 
" style="stroke: #000000; stroke-width: 0.8"/>
      </defs>
      <g>
       <use xlink:href="#mbfa85c58bf" x="108" y="300.51524" style="stroke: #000000; stroke-width: 0.8"/>
      </g>
     </g>
     <g id="text_7">
      <!-- −1 -->
      <g transform="translate(86.257812 304.314458) scale(0.1 -0.1)">
       <defs>
        <path id="DejaVuSans-2212" d="M 678 2272 
L 4684 2272 
L 4684 1741 
L 678 1741 
L 678 2272 
z
" transform="scale(0.015625)"/>
       </defs>
       <use xlink:href="#DejaVuSans-2212"/>
       <use xlink:href="#DejaVuSans-31" x="83.789062"/>
      </g>
     </g>
    </g>
    <g id="ytick_2">
     <g id="line2d_15">
      <path d="M 108 239.297702 
L 777.6 239.297702 
" clip-path="url(#pb11453674b)" style="fill: none; stroke: #b0b0b0; stroke-width: 0.8; stroke-linecap: square"/>
     </g>
     <g id="line2d_16">
      <g>
       <use xlink:href="#mbfa85c58bf" x="108" y="239.297702" style="stroke: #000000; stroke-width: 0.8"/>
      </g>
     </g>
     <g id="text_8">
      <!-- 0 -->
      <g transform="translate(94.6375 243.096921) scale(0.1 -0.1)">
       <use xlink:href="#DejaVuSans-30"/>
      </g>
     </g>
    </g>
    <g id="ytick_3">
     <g id="line2d_17">
      <path d="M 108 178.080165 
L 777.6 178.080165 
" clip-path="url(#pb11453674b)" style="fill: none; stroke: #b0b0b0; stroke-width: 0.8; stroke-linecap: square"/>
     </g>
     <g id="line2d_18">
      <g>
       <use xlink:href="#mbfa85c58bf" x="108" y="178.080165" style="stroke: #000000; stroke-width: 0.8"/>
      </g>
     </g>
     <g id="text_9">
      <!-- 1 -->
      <g transform="translate(94.6375 181.879384) scale(0.1 -0.1)">
       <use xlink:href="#DejaVuSans-31"/>
      </g>
     </g>
    </g>
    <g id="ytick_4">
     <g id="line2d_19">
      <path d="M 108 116.862628 
L 777.6 116.862628 
" clip-path="url(#pb11453674b)" style="fill: none; stroke: #b0b0b0; stroke-width: 0.8; stroke-linecap: square"/>
     </g>
     <g id="line2d_20">
      <g>
       <use xlink:href="#mbfa85c58bf" x="108" y="116.862628" style="stroke: #000000; stroke-width: 0.8"/>
      </g>
     </g>
     <g id="text_10">
      <!-- 2 -->
      <g transform="translate(94.6375 120.661847) scale(0.1 -0.1)">
       <use xlink:href="#DejaVuSans-32"/>
      </g>
     </g>
    </g>
    <g id="ytick_5">
     <g id="line2d_21">
      <path d="M 108 55.645091 
L 777.6 55.645091 
" clip-path="url(#pb11453674b)" style="fill: none; stroke: #b0b0b0; stroke-width: 0.8; stroke-linecap: square"/>
     </g>
     <g id="line2d_22">
      <g>
       <use xlink:href="#mbfa85c58bf" x="108" y="55.645091" style="stroke: #000000; stroke-width: 0.8"/>
      </g>
     </g>
     <g id="text_11">
      <!-- 3 -->
      <g transform="translate(94.6375 59.44431) scale(0.1 -0.1)">
       <defs>
        <path id="DejaVuSans-33" d="M 2597 2516 
Q 3050 2419 3304 2112 
Q 3559 1806 3559 1356 
Q 3559 666 3084 287 
Q 2609 -91 1734 -91 
Q 1441 -91 1130 -33 
Q 819 25 488 141 
L 488 750 
Q 750 597 1062 519 
Q 1375 441 1716 441 
Q 2309 441 2620 675 
Q 2931 909 2931 1356 
Q 2931 1769 2642 2001 
Q 2353 2234 1838 2234 
L 1294 2234 
L 1294 2753 
L 1863 2753 
Q 2328 2753 2575 2939 
Q 2822 3125 2822 3475 
Q 2822 3834 2567 4026 
Q 2313 4219 1838 4219 
Q 1578 4219 1281 4162 
Q 984 4106 628 3988 
L 628 4550 
Q 988 4650 1302 4700 
Q 1616 4750 1894 4750 
Q 2613 4750 3031 4423 
Q 3450 4097 3450 3541 
Q 3450 3153 3228 2886 
Q 3006 2619 2597 2516 
z
" transform="scale(0.015625)"/>
       </defs>
       <use xlink:href="#DejaVuSans-33"/>
      </g>
     </g>
    </g>
   </g>
   <g id="line2d_23">
    <path d="M 138.436364 254.191304 
L 139.064565 269.452174 
L 139.692767 256.147826 
L 140.320968 254.973913 
L 141.577371 267.495652 
L 142.205573 254.582609 
L 142.833774 269.452174 
L 143.461976 279.626087 
L 144.090177 275.713043 
L 144.718379 263.191304 
L 145.34658 263.973913 
L 145.974782 275.713043 
L 146.602983 275.713043 
L 147.231185 258.886957 
L 148.487588 270.626087 
L 149.115789 267.104348 
L 149.743991 254.191304 
L 150.372193 274.147826 
L 151.000394 266.321739 
L 151.628596 278.06087 
L 152.256797 265.930435 
L 152.884999 274.53913 
L 153.5132 270.234783 
L 154.141402 274.147826 
L 154.769603 290.582609 
L 155.397805 280.408696 
L 156.026006 273.365217 
L 156.654208 278.06087 
L 157.282409 292.53913 
L 158.538812 272.973913 
L 159.167014 297.626087 
L 159.795215 286.278261 
L 160.423417 293.321739 
L 161.051618 290.973913 
L 161.67982 283.53913 
L 162.308021 286.669565 
L 162.936223 294.495652 
L 163.564424 298.408696 
L 164.192626 298.8 
L 164.820827 295.669565 
L 165.449029 302.713043 
L 166.077231 298.017391 
L 167.333634 292.930435 
L 167.961835 286.669565 
L 168.590037 292.147826 
L 169.218238 289.017391 
L 169.84644 288.626087 
L 170.474641 297.626087 
L 171.102843 296.452174 
L 171.731044 288.234783 
L 172.359246 290.191304 
L 172.987447 279.626087 
L 173.615649 289.017391 
L 174.24385 295.669565 
L 174.872052 281.582609 
L 175.500253 281.582609 
L 176.128455 284.321739 
L 176.756656 276.104348 
L 177.384858 286.278261 
L 178.013059 281.582609 
L 178.641261 293.321739 
L 179.269462 296.06087 
L 179.897664 307.8 
L 180.525865 271.408696 
L 181.154067 283.930435 
L 181.782269 283.930435 
L 182.41047 275.321739 
L 183.038672 281.973913 
L 183.666873 278.452174 
L 184.295075 271.408696 
L 184.923276 282.365217 
L 185.551478 262.8 
L 186.179679 280.8 
L 186.807881 266.321739 
L 187.436082 272.582609 
L 188.064284 275.713043 
L 188.692485 262.017391 
L 189.320687 266.713043 
L 189.948888 265.930435 
L 190.57709 251.06087 
L 191.205291 258.104348 
L 191.833493 243.234783 
L 192.461694 267.495652 
L 193.089896 231.104348 
L 193.718097 230.713043 
L 194.346299 247.147826 
L 194.9745 269.843478 
L 195.602702 260.843478 
L 196.230903 254.973913 
L 196.859105 233.452174 
L 197.487307 247.53913 
L 198.115508 267.886957 
L 198.74371 230.713043 
L 199.371911 236.973913 
L 200.000113 232.669565 
L 200.628314 252.234783 
L 201.256516 217.017391 
L 201.884717 195.104348 
L 202.512919 224.06087 
L 203.14112 198.626087 
L 203.769322 202.147826 
L 204.397523 235.408696 
L 205.025725 208.8 
L 205.653926 193.53913 
L 206.282128 194.321739 
L 206.910329 177.104348 
L 207.538531 184.53913 
L 208.166732 182.973913 
L 208.794934 152.843478 
L 209.423135 157.930435 
L 210.051337 168.104348 
L 210.679538 167.713043 
L 211.30774 160.669565 
L 211.935941 134.452174 
L 212.564143 220.930435 
L 213.192344 148.147826 
L 213.820546 139.147826 
L 214.448748 158.321739 
L 215.705151 132.104348 
L 216.333352 139.147826 
L 216.961554 122.713043 
L 217.589755 145.8 
L 218.217957 147.365217 
L 218.846158 159.886957 
L 219.47436 151.278261 
L 220.102561 123.104348 
L 220.730763 110.582609 
L 221.358964 145.017391 
L 221.987166 123.495652 
L 222.615367 136.408696 
L 223.243569 137.973913 
L 223.87177 131.321739 
L 224.499972 111.756522 
L 225.128173 159.886957 
L 225.756375 109.8 
L 226.384576 202.147826 
L 227.012778 94.53913 
L 227.640979 87.886957 
L 228.269181 166.147826 
L 228.897382 149.713043 
L 229.525584 106.669565 
L 230.153786 164.191304 
L 230.781987 101.582609 
L 231.410189 130.930435 
L 232.03839 128.973913 
L 232.666592 127.408696 
L 233.294793 132.886957 
L 233.922995 116.452174 
L 234.551196 142.669565 
L 235.179398 90.626087 
L 235.807599 157.53913 
L 236.435801 102.756522 
L 237.064002 114.495652 
L 237.692204 132.495652 
L 238.320405 146.973913 
L 238.948607 120.365217 
L 239.576808 109.8 
L 240.20501 141.886957 
L 240.833211 136.017391 
L 241.461413 119.582609 
L 242.089614 160.278261 
L 242.717816 136.8 
L 243.346017 147.756522 
L 243.974219 150.104348 
L 244.60242 134.452174 
L 245.230622 174.756522 
L 245.858824 207.626087 
L 246.487025 152.06087 
L 247.115227 175.930435 
L 247.743428 148.53913 
L 248.37163 150.495652 
L 248.999831 136.8 
L 249.628033 151.278261 
L 250.256234 170.06087 
L 250.884436 163.017391 
L 251.512637 130.53913 
L 252.140839 90.626087 
L 252.76904 115.669565 
L 253.397242 100.8 
L 254.025443 155.973913 
L 254.653645 191.973913 
L 255.281846 164.191304 
L 255.910048 168.886957 
L 256.538249 157.930435 
L 257.166451 183.365217 
L 257.794652 227.582609 
L 258.422854 197.452174 
L 259.051055 173.582609 
L 259.679257 213.886957 
L 260.307458 106.669565 
L 260.93566 87.886957 
L 261.563862 109.408696 
L 262.192063 115.278261 
L 262.820265 111.365217 
L 263.448466 138.756522 
L 264.076668 114.495652 
L 264.704869 163.017391 
L 265.333071 109.017391 
L 265.961272 116.843478 
L 266.589474 99.234783 
L 267.845877 70.278261 
L 268.474078 80.452174 
L 269.10228 73.017391 
L 269.730481 143.06087 
L 270.358683 73.017391 
L 270.986884 119.191304 
L 271.615086 121.53913 
L 272.243287 115.669565 
L 272.871489 160.669565 
L 273.49969 132.104348 
L 274.127892 131.713043 
L 274.756093 150.104348 
L 275.384295 143.843478 
L 276.012496 152.843478 
L 276.640698 181.8 
L 277.2689 173.191304 
L 277.897101 172.017391 
L 278.525303 175.53913 
L 279.153504 209.582609 
L 279.781706 157.147826 
L 280.409907 154.408696 
L 281.038109 171.626087 
L 281.66631 185.713043 
L 282.294512 182.582609 
L 282.922713 195.495652 
L 283.550915 163.408696 
L 284.179116 146.582609 
L 284.807318 175.53913 
L 285.435519 169.669565 
L 286.063721 196.278261 
L 286.691922 199.017391 
L 287.320124 182.191304 
L 287.948325 184.930435 
L 288.576527 195.495652 
L 289.204728 188.06087 
L 289.83293 173.973913 
L 290.461131 194.321739 
L 291.089333 180.626087 
L 291.717534 204.104348 
L 292.345736 196.669565 
L 293.602139 218.191304 
L 294.230341 204.886957 
L 294.858542 200.582609 
L 295.486744 208.017391 
L 296.114945 202.53913 
L 296.743147 212.321739 
L 297.371348 210.365217 
L 297.99955 226.408696 
L 298.627751 193.147826 
L 299.255953 198.234783 
L 299.884154 220.147826 
L 300.512356 194.713043 
L 301.140557 215.452174 
L 301.768759 253.8 
L 302.39696 214.278261 
L 303.025162 212.321739 
L 303.653363 208.408696 
L 304.281565 226.408696 
L 304.909766 219.756522 
L 305.537968 209.191304 
L 306.166169 217.8 
L 306.794371 213.886957 
L 307.422572 242.843478 
L 308.050774 242.843478 
L 308.678976 235.408696 
L 309.935379 236.191304 
L 310.56358 248.321739 
L 311.191782 248.713043 
L 311.819983 240.886957 
L 312.448185 258.886957 
L 313.076386 247.930435 
L 313.704588 240.104348 
L 314.332789 265.147826 
L 314.960991 262.408696 
L 315.589192 254.973913 
L 316.217394 271.017391 
L 316.845595 267.495652 
L 317.473797 263.191304 
L 318.101998 283.147826 
L 318.7302 282.756522 
L 319.358401 276.104348 
L 319.986603 285.495652 
L 320.614804 283.147826 
L 321.243006 303.104348 
L 321.871207 287.452174 
L 322.499409 280.8 
L 323.12761 284.321739 
L 323.755812 293.321739 
L 324.384014 287.06087 
L 325.012215 285.104348 
L 325.640417 285.886957 
L 326.268618 281.191304 
L 326.89682 289.8 
L 327.525021 281.582609 
L 328.153223 293.321739 
L 328.781424 287.843478 
L 329.409626 292.930435 
L 330.037827 296.843478 
L 330.666029 294.495652 
L 331.29423 294.495652 
L 331.922432 289.8 
L 332.550633 289.8 
L 333.178835 294.886957 
L 333.807036 306.234783 
L 335.063439 296.06087 
L 335.691641 296.843478 
L 336.319842 289.408696 
L 336.948044 293.321739 
L 337.576245 300.756522 
L 338.204447 306.626087 
L 338.832648 294.886957 
L 339.46085 291.756522 
L 340.089052 299.582609 
L 340.717253 292.930435 
L 341.345455 301.930435 
L 341.973656 288.234783 
L 342.601858 295.278261 
L 343.230059 292.930435 
L 343.858261 277.278261 
L 344.486462 289.408696 
L 345.114664 287.452174 
L 345.742865 275.321739 
L 346.371067 289.408696 
L 346.999268 282.756522 
L 347.62747 278.452174 
L 348.255671 278.452174 
L 348.883873 282.365217 
L 349.512074 267.495652 
L 350.140276 272.191304 
L 350.768477 275.713043 
L 351.396679 257.713043 
L 352.02488 255.365217 
L 352.653082 256.930435 
L 353.281283 269.06087 
L 353.909485 258.495652 
L 354.537686 258.886957 
L 355.165888 256.147826 
L 355.79409 238.53913 
L 356.422291 247.53913 
L 357.050493 233.452174 
L 357.678694 216.234783 
L 358.306896 226.017391 
L 358.935097 223.278261 
L 359.563299 239.321739 
L 360.1915 216.234783 
L 360.819702 213.886957 
L 361.447903 224.06087 
L 362.076105 212.321739 
L 362.704306 227.582609 
L 363.332508 219.756522 
L 363.960709 202.147826 
L 364.588911 225.626087 
L 365.217112 216.626087 
L 365.845314 226.8 
L 366.473515 212.713043 
L 367.101717 216.626087 
L 367.729918 193.147826 
L 368.35812 251.452174 
L 368.986321 212.713043 
L 369.614523 211.53913 
L 370.242724 199.8 
L 370.870926 214.278261 
L 371.499127 202.53913 
L 372.127329 238.53913 
L 372.755531 191.582609 
L 373.383732 189.626087 
L 374.011934 218.582609 
L 374.640135 188.452174 
L 375.896538 215.843478 
L 376.52474 192.756522 
L 377.152941 207.234783 
L 377.781143 181.408696 
L 378.409344 184.147826 
L 379.037546 195.104348 
L 380.293949 182.191304 
L 380.92215 186.104348 
L 381.550352 171.626087 
L 382.178553 182.973913 
L 382.806755 202.930435 
L 383.434956 212.713043 
L 384.691359 187.278261 
L 385.319561 204.886957 
L 385.947762 164.973913 
L 386.575964 166.147826 
L 387.204165 155.191304 
L 387.832367 168.886957 
L 388.460569 165.365217 
L 389.08877 164.191304 
L 389.716972 149.321739 
L 390.345173 146.582609 
L 390.973375 133.669565 
L 391.601576 148.147826 
L 392.229778 147.756522 
L 392.857979 131.713043 
L 393.486181 162.234783 
L 394.114382 157.147826 
L 394.742584 134.06087 
L 395.370785 134.452174 
L 395.998987 139.147826 
L 396.627188 173.191304 
L 397.25539 137.582609 
L 397.883591 129.365217 
L 398.511793 190.408696 
L 399.139994 194.321739 
L 399.768196 136.8 
L 400.396397 143.06087 
L 401.024599 137.191304 
L 401.6528 101.973913 
L 402.281002 154.8 
L 402.909203 128.582609 
L 403.537405 168.104348 
L 404.165607 118.8 
L 404.793808 130.147826 
L 405.42201 136.408696 
L 406.050211 175.147826 
L 406.678413 149.321739 
L 407.306614 103.930435 
L 407.934816 143.06087 
L 408.563017 131.713043 
L 409.191219 132.495652 
L 409.81942 118.017391 
L 410.447622 140.321739 
L 411.075823 135.626087 
L 411.704025 116.06087 
L 412.332226 128.973913 
L 412.960428 121.53913 
L 413.588629 134.452174 
L 414.216831 126.626087 
L 415.473234 98.452174 
L 416.101435 129.756522 
L 416.729637 118.408696 
L 417.357838 113.321739 
L 417.98604 112.53913 
L 418.614241 130.147826 
L 419.242443 107.06087 
L 420.498846 139.930435 
L 421.127048 127.8 
L 421.755249 131.321739 
L 422.383451 128.191304 
L 423.011652 149.713043 
L 423.639854 143.06087 
L 424.268055 115.278261 
L 424.896257 98.843478 
L 425.524458 141.886957 
L 426.15266 71.452174 
L 426.780861 149.321739 
L 427.409063 90.234783 
L 428.037264 120.365217 
L 428.665466 107.843478 
L 429.293667 130.147826 
L 429.921869 136.8 
L 430.55007 137.973913 
L 431.178272 111.756522 
L 431.806473 179.06087 
L 432.434675 147.756522 
L 433.062876 175.930435 
L 433.691078 168.495652 
L 434.319279 101.191304 
L 434.947481 102.365217 
L 435.575683 119.973913 
L 436.203884 114.495652 
L 436.832086 105.886957 
L 437.460287 150.104348 
L 438.088489 139.53913 
L 438.71669 92.582609 
L 439.344892 130.53913 
L 439.973093 110.973913 
L 440.601295 120.365217 
L 441.229496 114.104348 
L 442.485899 159.495652 
L 443.114101 130.53913 
L 443.742302 110.191304 
L 444.370504 160.669565 
L 444.998705 129.756522 
L 445.626907 109.8 
L 446.255108 147.756522 
L 446.88331 154.408696 
L 447.511511 199.017391 
L 448.139713 111.756522 
L 448.767914 139.147826 
L 449.396116 136.8 
L 450.024317 136.408696 
L 450.652519 163.017391 
L 451.280721 154.017391 
L 451.908922 136.017391 
L 452.537124 183.365217 
L 453.165325 145.8 
L 453.793527 122.713043 
L 454.421728 164.582609 
L 455.04993 128.973913 
L 455.678131 149.713043 
L 456.306333 153.626087 
L 457.562736 190.8 
L 458.190937 162.234783 
L 458.819139 159.104348 
L 459.44734 164.191304 
L 460.075542 155.973913 
L 460.703743 145.408696 
L 461.331945 191.582609 
L 462.588348 168.495652 
L 463.216549 205.669565 
L 463.844751 169.669565 
L 464.472952 189.234783 
L 465.101154 183.365217 
L 466.357557 221.321739 
L 466.985759 204.495652 
L 467.61396 193.930435 
L 468.242162 200.582609 
L 468.870363 184.147826 
L 469.498565 207.626087 
L 470.126766 200.582609 
L 470.754968 205.278261 
L 471.383169 239.713043 
L 472.639572 190.8 
L 473.267774 208.408696 
L 473.895975 207.626087 
L 474.524177 239.713043 
L 475.152378 205.669565 
L 475.78058 194.713043 
L 476.408781 225.234783 
L 477.036983 224.843478 
L 477.665184 211.930435 
L 478.293386 223.669565 
L 478.921587 211.147826 
L 479.549789 214.278261 
L 480.17799 221.321739 
L 480.806192 209.973913 
L 482.062595 253.8 
L 482.690797 218.582609 
L 483.318998 218.191304 
L 483.9472 239.713043 
L 484.575401 230.321739 
L 485.203603 206.843478 
L 485.831804 237.756522 
L 486.460006 226.017391 
L 487.088207 236.973913 
L 487.716409 226.8 
L 488.34461 241.278261 
L 488.972812 236.582609 
L 489.601013 238.53913 
L 490.229215 233.843478 
L 490.857416 245.191304 
L 491.485618 264.756522 
L 492.113819 257.713043 
L 492.742021 263.973913 
L 493.370222 253.408696 
L 493.998424 247.930435 
L 494.626625 259.669565 
L 495.254827 268.278261 
L 495.883028 269.843478 
L 496.51123 283.53913 
L 497.139431 265.147826 
L 497.767633 263.191304 
L 498.395835 279.234783 
L 499.024036 286.278261 
L 499.652238 275.713043 
L 500.280439 276.886957 
L 500.908641 284.713043 
L 501.536842 280.8 
L 502.165044 279.234783 
L 502.793245 288.626087 
L 503.421447 270.234783 
L 504.049648 292.930435 
L 504.67785 293.321739 
L 505.306051 289.8 
L 505.934253 293.713043 
L 506.562454 292.53913 
L 507.190656 288.626087 
L 507.818857 288.626087 
L 508.447059 296.452174 
L 509.07526 292.147826 
L 509.703462 289.408696 
L 510.331663 294.886957 
L 510.959865 290.973913 
L 511.588066 297.234783 
L 512.216268 287.843478 
L 512.844469 299.973913 
L 513.472671 301.53913 
L 514.100873 298.8 
L 514.729074 293.321739 
L 515.357276 295.669565 
L 515.985477 289.8 
L 516.613679 289.8 
L 517.24188 283.147826 
L 517.870082 283.930435 
L 518.498283 295.669565 
L 519.126485 291.756522 
L 519.754686 291.365217 
L 520.382888 288.234783 
L 521.011089 298.408696 
L 521.639291 282.756522 
L 522.895694 291.365217 
L 523.523895 274.147826 
L 524.152097 277.669565 
L 524.780298 292.930435 
L 525.4085 278.843478 
L 526.036701 273.756522 
L 526.664903 291.365217 
L 528.549507 252.234783 
L 529.177709 251.06087 
L 529.80591 267.886957 
L 530.434112 233.452174 
L 531.062314 234.626087 
L 531.690515 206.06087 
L 532.318717 218.582609 
L 532.946918 196.669565 
L 533.57512 196.669565 
L 534.203321 193.147826 
L 534.831523 192.756522 
L 535.459724 179.843478 
L 536.087926 161.843478 
L 536.716127 161.452174 
L 537.344329 105.886957 
L 537.97253 148.53913 
L 538.600732 148.147826 
L 539.228933 114.886957 
L 539.857135 134.06087 
L 540.485336 135.234783 
L 541.113538 148.53913 
L 541.741739 155.191304 
L 542.369941 145.017391 
L 542.998142 144.234783 
L 543.626344 163.408696 
L 544.254545 164.582609 
L 544.882747 154.017391 
L 545.510948 163.017391 
L 546.13915 154.8 
L 547.395553 127.8 
L 548.023755 161.452174 
L 548.651956 159.886957 
L 549.280158 150.495652 
L 549.908359 123.104348 
L 550.536561 156.365217 
L 551.164762 180.234783 
L 551.792964 139.930435 
L 552.421165 148.147826 
L 553.049367 136.408696 
L 553.677568 111.756522 
L 554.30577 146.973913 
L 554.933971 128.582609 
L 555.562173 114.495652 
L 556.190374 114.495652 
L 556.818576 166.147826 
L 557.446777 116.452174 
L 558.074979 134.06087 
L 558.70318 107.843478 
L 559.331382 112.147826 
L 559.959583 148.53913 
L 560.587785 112.53913 
L 561.215986 193.147826 
L 561.844188 94.147826 
L 562.47239 182.973913 
L 563.100591 117.234783 
L 563.728793 121.930435 
L 564.356994 128.973913 
L 564.985196 140.321739 
L 565.613397 183.365217 
L 566.241599 126.234783 
L 566.8698 124.669565 
L 567.498002 122.713043 
L 568.126203 138.756522 
L 568.754405 123.886957 
L 569.382606 179.843478 
L 570.010808 135.234783 
L 570.639009 208.8 
L 571.267211 156.756522 
L 571.895412 123.495652 
L 572.523614 130.53913 
L 573.151815 109.8 
L 573.780017 151.669565 
L 574.408218 164.973913 
L 575.03642 125.843478 
L 575.664621 125.06087 
L 576.292823 120.365217 
L 576.921024 127.017391 
L 577.549226 124.278261 
L 578.805629 154.8 
L 579.433831 145.8 
L 580.062032 144.626087 
L 580.690234 158.321739 
L 581.318435 160.278261 
L 581.946637 163.408696 
L 582.574838 153.234783 
L 583.20304 149.321739 
L 583.831241 141.886957 
L 584.459443 148.930435 
L 585.087644 134.843478 
L 585.715846 150.495652 
L 586.344047 161.843478 
L 586.972249 195.104348 
L 587.60045 133.669565 
L 588.228652 128.191304 
L 588.856853 124.278261 
L 589.485055 112.53913 
L 590.113256 134.452174 
L 590.741458 149.713043 
L 591.369659 154.017391 
L 591.997861 120.365217 
L 592.626062 112.930435 
L 593.254264 139.930435 
L 593.882466 128.973913 
L 594.510667 127.8 
L 595.138869 148.53913 
L 595.76707 107.843478 
L 596.395272 94.147826 
L 597.651675 116.843478 
L 598.279876 164.582609 
L 598.908078 267.495652 
L 599.536279 123.495652 
L 600.164481 184.930435 
L 600.792682 107.843478 
L 601.420884 104.713043 
L 602.049085 150.495652 
L 602.677287 148.147826 
L 603.305488 119.582609 
L 603.93369 108.234783 
L 604.561891 118.8 
L 605.190093 91.408696 
L 605.818294 132.104348 
L 606.446496 83.582609 
L 607.074697 83.973913 
L 607.702899 69.104348 
L 608.3311 90.234783 
L 608.959302 105.495652 
L 609.587504 141.886957 
L 610.215705 97.278261 
L 610.843907 136.017391 
L 611.472108 135.234783 
L 612.10031 88.669565 
L 613.356713 139.53913 
L 614.613116 86.713043 
L 615.241317 81.234783 
L 615.869519 83.191304 
L 616.49772 77.713043 
L 617.754123 121.53913 
L 618.382325 101.973913 
L 619.010526 109.408696 
L 619.638728 87.886957 
L 620.266929 111.365217 
L 620.895131 74.582609 
L 621.523332 109.017391 
L 622.151534 55.8 
L 622.779735 116.06087 
L 624.036138 75.756522 
L 624.66434 66.756522 
L 625.292542 85.930435 
L 625.920743 83.191304 
L 626.548945 96.495652 
L 627.177146 73.408696 
L 627.805348 98.452174 
L 628.433549 56.582609 
L 629.061751 67.930435 
L 630.318154 114.495652 
L 630.946355 76.53913 
L 631.574557 105.886957 
L 632.202758 146.191304 
L 632.83096 113.321739 
L 633.459161 148.147826 
L 634.087363 96.495652 
L 634.715564 94.147826 
L 635.343766 80.06087 
L 635.971967 122.713043 
L 636.600169 137.582609 
L 637.22837 98.06087 
L 637.856572 157.147826 
L 638.484773 137.582609 
L 639.112975 127.408696 
L 639.741176 168.495652 
L 640.369378 157.147826 
L 640.99758 128.191304 
L 641.625781 153.626087 
L 642.253983 152.843478 
L 642.882184 211.930435 
L 643.510386 196.278261 
L 644.138587 175.930435 
L 644.766789 189.626087 
L 645.39499 200.582609 
L 646.023192 170.843478 
L 646.651393 181.017391 
L 647.279595 198.234783 
L 647.907796 226.408696 
L 648.535998 207.626087 
L 649.164199 150.104348 
L 649.792401 203.713043 
L 650.420602 208.408696 
L 651.048804 211.53913 
L 651.677005 231.886957 
L 652.305207 207.234783 
L 652.933408 207.234783 
L 653.56161 222.104348 
L 654.189811 223.669565 
L 654.818013 217.408696 
L 655.446214 202.53913 
L 656.074416 226.017391 
L 656.702618 233.06087 
L 657.330819 212.321739 
L 657.959021 223.669565 
L 658.587222 245.973913 
L 659.215424 221.321739 
L 659.843625 219.365217 
L 660.471827 214.669565 
L 661.100028 251.06087 
L 661.72823 252.626087 
L 662.356431 238.53913 
L 662.984633 271.017391 
L 663.612834 242.452174 
L 664.241036 244.8 
L 664.869237 238.53913 
L 665.497439 226.408696 
L 666.12564 229.930435 
L 666.753842 229.930435 
L 667.382043 254.582609 
L 668.010245 228.756522 
L 668.638446 249.104348 
L 669.266648 254.191304 
L 669.894849 256.53913 
L 670.523051 272.973913 
L 671.151252 260.843478 
L 671.779454 252.234783 
L 672.407656 259.669565 
L 673.035857 258.886957 
L 673.664059 269.843478 
L 674.29226 258.495652 
L 674.920462 258.886957 
L 675.548663 254.191304 
L 676.176865 259.669565 
L 676.805066 269.843478 
L 677.433268 262.408696 
L 678.061469 287.452174 
L 678.689671 271.408696 
L 679.317872 276.104348 
L 679.946074 290.582609 
L 680.574275 278.452174 
L 681.202477 284.713043 
L 681.830678 281.582609 
L 682.45888 272.973913 
L 683.087081 257.321739 
L 683.715283 267.886957 
L 684.343484 290.582609 
L 684.971686 292.53913 
L 685.599887 287.843478 
L 686.228089 281.973913 
L 686.85629 288.626087 
L 687.484492 284.713043 
L 688.112693 288.626087 
L 688.740895 290.582609 
L 689.369097 294.886957 
L 689.997298 289.408696 
L 690.6255 289.8 
L 691.253701 306.626087 
L 691.881903 278.843478 
L 692.510104 296.06087 
L 693.138306 284.713043 
L 693.766507 285.886957 
L 694.394709 296.06087 
L 695.02291 284.321739 
L 695.651112 294.495652 
L 696.279313 292.53913 
L 696.907515 279.234783 
L 697.535716 290.973913 
L 698.163918 287.06087 
L 698.792119 284.321739 
L 699.420321 296.06087 
L 700.048522 294.495652 
L 700.676724 294.495652 
L 701.304925 299.582609 
L 701.933127 294.886957 
L 702.561328 285.104348 
L 703.18953 278.06087 
L 703.817731 279.234783 
L 704.445933 298.8 
L 705.074135 274.147826 
L 705.702336 292.53913 
L 706.330538 269.843478 
L 706.958739 274.930435 
L 707.586941 269.06087 
L 708.215142 268.278261 
L 708.843344 251.452174 
L 709.471545 268.669565 
L 710.099747 254.582609 
L 710.727948 230.713043 
L 711.35615 242.843478 
L 711.984351 231.886957 
L 712.612553 225.234783 
L 713.240754 207.626087 
L 713.868956 214.278261 
L 714.497157 197.06087 
L 715.125359 194.713043 
L 716.381762 199.8 
L 717.009963 150.495652 
L 717.638165 138.365217 
L 718.266366 130.53913 
L 718.894568 129.365217 
L 719.522769 103.930435 
L 720.150971 112.147826 
L 720.779173 107.06087 
L 721.407374 143.06087 
L 722.035576 125.843478 
L 722.663777 158.713043 
L 723.291979 158.713043 
L 723.92018 123.495652 
L 724.548382 149.321739 
L 725.176583 135.234783 
L 726.432986 181.8 
L 727.061188 143.452174 
L 727.689389 218.191304 
L 728.317591 146.582609 
L 728.945792 134.452174 
L 729.573994 192.365217 
L 730.202195 173.973913 
L 730.830397 131.321739 
L 731.458598 146.582609 
L 732.0868 143.843478 
L 732.715001 144.234783 
L 733.343203 166.147826 
L 733.971404 126.626087 
L 734.599606 166.147826 
L 735.227807 124.278261 
L 735.856009 116.843478 
L 736.484211 139.147826 
L 737.112412 126.234783 
L 737.740614 119.973913 
L 738.368815 158.321739 
L 738.997017 132.886957 
L 739.625218 130.53913 
L 740.25342 116.843478 
L 740.881621 126.234783 
L 741.509823 113.713043 
L 742.138024 116.452174 
L 742.766226 136.408696 
L 743.394427 106.278261 
L 744.022629 119.973913 
L 744.65083 147.365217 
L 745.279032 137.973913 
L 745.907233 191.191304 
L 746.535435 134.843478 
L 747.163636 120.756522 
L 747.163636 120.756522 
" clip-path="url(#pb11453674b)" style="fill: none; stroke: #15429a; stroke-width: 1.5; stroke-linecap: square"/>
   </g>
   <g id="patch_3">
    <path d="M 108 320.4 
L 108 43.2 
" style="fill: none; stroke: #000000; stroke-width: 0.8; stroke-linejoin: miter; stroke-linecap: square"/>
   </g>
   <g id="patch_4">
    <path d="M 777.6 320.4 
L 777.6 43.2 
" style="fill: none; stroke: #000000; stroke-width: 0.8; stroke-linejoin: miter; stroke-linecap: square"/>
   </g>
   <g id="patch_5">
    <path d="M 108 320.4 
L 777.6 320.4 
" style="fill: none; stroke: #000000; stroke-width: 0.8; stroke-linejoin: miter; stroke-linecap: square"/>
   </g>
   <g id="patch_6">
    <path d="M 108 43.2 
L 777.6 43.2 
" style="fill: none; stroke: #000000; stroke-width: 0.8; stroke-linejoin: miter; stroke-linecap: square"/>
   </g>
   <g id="legend_1">
    <g id="patch_7">
     <path d="M 644.6075 79.485 
L 766.4 79.485 
Q 769.6 79.485 769.6 76.285 
L 769.6 54.4 
Q 769.6 51.2 766.4 51.2 
L 644.6075 51.2 
Q 641.4075 51.2 641.4075 54.4 
L 641.4075 76.285 
Q 641.4075 79.485 644.6075 79.485 
z
" style="fill: #ffffff; opacity: 0.8; stroke: #cccccc; stroke-linejoin: miter"/>
    </g>
    <g id="line2d_24">
     <path d="M 647.8075 64.1575 
L 663.8075 64.1575 
L 679.8075 64.1575 
" style="fill: none; stroke: #15429a; stroke-width: 1.5; stroke-linecap: square"/>
    </g>
    <g id="text_12">
     <!-- raw data -->
     <g transform="translate(692.6075 69.7575) scale(0.16 -0.16)">
      <defs>
       <path id="DejaVuSans-72" d="M 2631 2963 
Q 2534 3019 2420 3045 
Q 2306 3072 2169 3072 
Q 1681 3072 1420 2755 
Q 1159 2438 1159 1844 
L 1159 0 
L 581 0 
L 581 3500 
L 1159 3500 
L 1159 2956 
Q 1341 3275 1631 3429 
Q 1922 3584 2338 3584 
Q 2397 3584 2469 3576 
Q 2541 3569 2628 3553 
L 2631 2963 
z
" transform="scale(0.015625)"/>
       <path id="DejaVuSans-61" d="M 2194 1759 
Q 1497 1759 1228 1600 
Q 959 1441 959 1056 
Q 959 750 1161 570 
Q 1363 391 1709 391 
Q 2188 391 2477 730 
Q 2766 1069 2766 1631 
L 2766 1759 
L 2194 1759 
z
M 3341 1997 
L 3341 0 
L 2766 0 
L 2766 531 
Q 2569 213 2275 61 
Q 1981 -91 1556 -91 
Q 1019 -91 701 211 
Q 384 513 384 1019 
Q 384 1609 779 1909 
Q 1175 2209 1959 2209 
L 2766 2209 
L 2766 2266 
Q 2766 2663 2505 2880 
Q 2244 3097 1772 3097 
Q 1472 3097 1187 3025 
Q 903 2953 641 2809 
L 641 3341 
Q 956 3463 1253 3523 
Q 1550 3584 1831 3584 
Q 2591 3584 2966 3190 
Q 3341 2797 3341 1997 
z
" transform="scale(0.015625)"/>
       <path id="DejaVuSans-77" d="M 269 3500 
L 844 3500 
L 1563 769 
L 2278 3500 
L 2956 3500 
L 3675 769 
L 4391 3500 
L 4966 3500 
L 4050 0 
L 3372 0 
L 2619 2869 
L 1863 0 
L 1184 0 
L 269 3500 
z
" transform="scale(0.015625)"/>
       <path id="DejaVuSans-20" transform="scale(0.015625)"/>
       <path id="DejaVuSans-64" d="M 2906 2969 
L 2906 4863 
L 3481 4863 
L 3481 0 
L 2906 0 
L 2906 525 
Q 2725 213 2448 61 
Q 2172 -91 1784 -91 
Q 1150 -91 751 415 
Q 353 922 353 1747 
Q 353 2572 751 3078 
Q 1150 3584 1784 3584 
Q 2172 3584 2448 3432 
Q 2725 3281 2906 2969 
z
M 947 1747 
Q 947 1113 1208 752 
Q 1469 391 1925 391 
Q 2381 391 2643 752 
Q 2906 1113 2906 1747 
Q 2906 2381 2643 2742 
Q 2381 3103 1925 3103 
Q 1469 3103 1208 2742 
Q 947 2381 947 1747 
z
" transform="scale(0.015625)"/>
       <path id="DejaVuSans-74" d="M 1172 4494 
L 1172 3500 
L 2356 3500 
L 2356 3053 
L 1172 3053 
L 1172 1153 
Q 1172 725 1289 603 
Q 1406 481 1766 481 
L 2356 481 
L 2356 0 
L 1766 0 
Q 1100 0 847 248 
Q 594 497 594 1153 
L 594 3053 
L 172 3053 
L 172 3500 
L 594 3500 
L 594 4494 
L 1172 4494 
z
" transform="scale(0.015625)"/>
      </defs>
      <use xlink:href="#DejaVuSans-72"/>
      <use xlink:href="#DejaVuSans-61" x="41.113281"/>
      <use xlink:href="#DejaVuSans-77" x="102.392578"/>
      <use xlink:href="#DejaVuSans-20" x="184.179688"/>
      <use xlink:href="#DejaVuSans-64" x="215.966797"/>
      <use xlink:href="#DejaVuSans-61" x="279.443359"/>
      <use xlink:href="#DejaVuSans-74" x="340.722656"/>
      <use xlink:href="#DejaVuSans-61" x="379.931641"/>
     </g>
    </g>
   </g>
  </g>
 </g>
 <defs>
  <clipPath id="pb11453674b">
   <rect x="108" y="43.2" width="669.6" height="277.2"/>
  </clipPath>
 </defs>
</svg>
